<?xml version="1.0" encoding="UTF-8"?>
<svg width="10px" height="20px" viewBox="0 0 10 20" version="1.1" xmlns="http://www.w3.org/2000/svg" xmlns:xlink="http://www.w3.org/1999/xlink">
    <!-- Generator: Sketch 41.2 (35397) - http://www.bohemiancoding.com/sketch -->
    <title>Paperclip</title>
    <desc>Created with Sketch.</desc>
    <defs></defs>
    <g id="Page-1" stroke="none" stroke-width="1" fill="none" fill-rule="evenodd">
        <g id="Ricochet" transform="translate(-1046.000000, -852.000000)" fill="#1285E3">
            <g id="App" transform="translate(380.000000, 393.000000)">
                <g id="Main-View" transform="translate(253.693878, 25.000000)">
                    <g id="Attachments" transform="translate(413.107169, 434.000000)">
                        <path d="M7.76980709,4.7274802 C7.44084389,4.72227314 7.17454035,4.99304061 7.17454035,5.33149995 L7.16409708,15.4748661 C7.15887544,17.7555613 5.61327059,18.7761464 4.17732013,18.7657323 C2.74136968,18.7501111 1.19576483,17.7034906 1.20098647,15.4280024 C1.20098647,13.6836351 1.21142974,6.69575145 1.21665138,3.20180964 C1.21665138,2.39992135 1.52994966,1.77507334 2.09388657,1.44702813 C2.64738019,1.12418999 3.36796624,1.12939706 3.92145987,1.46264933 C4.48539678,1.80110867 4.79347342,2.43116375 4.79347342,3.23305204 L4.7778085,14.922917 C4.7778085,15.3030328 4.68904066,15.6154569 4.53239152,15.8133254 C4.4331804,15.938295 4.30263945,16.0111939 4.1720985,16.0111939 C3.87968677,16.0059869 3.57683176,15.6310781 3.5820534,14.928124 C3.5820534,14.928124 3.59249668,6.26877197 3.59771831,5.9355197 C3.59771831,5.59706036 3.33141477,5.32108582 3.00245158,5.32108582 C2.67348838,5.32108582 2.40718485,5.59185329 2.40718485,5.93031263 L2.39151993,14.922917 C2.39151993,16.4329663 3.28964167,17.2296476 4.17732013,17.2400617 C4.66815411,17.2452688 5.13287989,17.0109508 5.46184308,16.5943854 C5.79080628,16.1778201 5.96834197,15.6050427 5.96834197,14.9385382 L5.98400689,3.24867324 C5.98400689,2.00939134 5.45139981,0.978392119 4.5167266,0.421235973 C3.60293995,-0.130713106 2.41240648,-0.14112724 1.49339819,0.395200639 C0.558724989,0.941942651 0.0208962738,1.96252774 0.0156746358,3.20180964 C0.0104529978,6.69054438 0.00523135978,13.678428 9.72176121e-06,15.4280024 C-0.00521191625,18.4064447 2.09388657,19.9789788 4.16687686,19.9998071 C5.23731265,20.0102212 6.31297008,19.5988629 7.10665906,18.7969747 C7.84813166,18.04195 8.34418727,16.9380518 8.34418727,15.4956943 L8.34940891,5.34712115 C8.36507382,5.00345474 8.09877028,4.7274802 7.76980709,4.7274802 Z" id="Paperclip"></path>
                    </g>
                </g>
            </g>
        </g>
    </g>
</svg>