<?xml version="1.0" encoding="UTF-8"?>
<svg width="22px" height="20px" viewBox="0 0 22 20" version="1.1" xmlns="http://www.w3.org/2000/svg" xmlns:xlink="http://www.w3.org/1999/xlink">
    <!-- Generator: Sketch 41.2 (35397) - http://www.bohemiancoding.com/sketch -->
    <title>Add Contact</title>
    <desc>Created with Sketch.</desc>
    <defs></defs>
    <g id="Page-1" stroke="none" stroke-width="1" fill="none" fill-rule="evenodd">
        <g id="Ricochet" transform="translate(-435.000000, -843.000000)" fill="#1285E3">
            <g id="List" transform="translate(380.000000, 418.000000)">
                <g id="Add-Contact" transform="translate(55.391516, 425.000000)">
                    <polygon id="Shape" points="20.8696422 3.5625 19.2392014 3.5625 19.2392014 2 18.3261545 2 18.3261545 3.5625 16.6957137 3.5625 16.6957137 4.4375 18.3261545 4.4375 18.3261545 6 19.2392014 6 19.2392014 4.4375 20.8696422 4.4375"></polygon>
                    <path d="M17.432673,16.74375 C16.5913655,16.45625 15.3848393,16.35625 14.6152713,16.19375 C14.1717914,16.1 13.5261368,15.8625 13.3109186,15.61875 C13.0957005,15.36875 13.2261357,13.0625 13.2261357,13.0625 C13.2261357,13.0625 13.6239633,12.4625 13.8391815,11.9375 C14.0543996,11.4125 14.2891831,9.975 14.2891831,9.975 C14.2891831,9.975 14.732663,9.975 14.8891853,9.23125 C15.0587512,8.41875 15.3196217,8.08125 15.2870129,7.475 C15.2544041,6.9125 14.9478812,6.88125 14.9152724,6.88125 L14.9152724,6.88125 C14.9152724,6.88125 15.2348388,6.03125 15.2804911,4.23125 C15.3326652,2.1 13.630485,0 10.4348211,0 C7.23915713,0 5.5434987,2.09375 5.58915104,4.225 C5.62828162,6.01875 5.95436978,6.875 5.95436978,6.875 L5.95436978,6.875 C5.92176096,6.875 5.6152381,6.90625 5.58262928,7.46875 C5.55002046,8.075 5.81741275,8.4 5.98045683,9.2125 C6.13697915,9.95625 6.58045905,9.9625 6.58045905,9.9625 C6.58045905,9.9625 6.81524252,11.40625 7.0304607,11.93125 C7.24567889,12.4625 7.64350644,13.05625 7.64350644,13.05625 C7.64350644,13.05625 7.77394171,15.3625 7.55872352,15.6125 C7.34350534,15.8625 6.69785078,16.09375 6.25437089,16.1875 C5.47828107,16.35 4.27827664,16.45625 3.43696919,16.74375 C2.59566174,17.03125 0,18 0,20 L10.4348211,20 L20.8696422,20 C20.8696422,18 18.2739804,17.03125 17.432673,16.74375 Z M10.4348211,19 L1.48044024,19 C1.6108755,18.8125 1.78696311,18.68125 2.01522482,18.525 C2.47174824,18.20625 3.06522869,17.9125 3.78262264,17.675 C4.22610254,17.525 4.87175709,17.425 5.43915049,17.34375 C5.81089099,17.2875 6.1630662,17.2375 6.47611083,17.16875 C6.69785078,17.11875 7.83263758,16.85625 8.35437863,16.25625 C8.64785797,15.91875 8.73264089,15.4625 8.71959737,14.2375 C8.7130756,13.6125 8.68046679,13.03125 8.68046679,13.00625 L8.66742326,12.74375 L8.51742271,12.525 C8.41959626,12.38125 8.13916044,11.93125 7.99568165,11.56875 C7.87828992,11.275 7.69568055,10.36875 7.60437586,9.8125 C7.60437586,9.8125 7.63046292,9.875 7.57176705,9.58125 C7.51307118,9.2875 7.02393894,9.3125 6.95872131,9.08125 C6.90002544,8.85625 6.84132957,8.65 6.67828549,7.94375 C6.51524141,7.2375 6.86089486,7.24375 6.93263426,6.93125 C6.97176484,6.7375 6.93263426,6.575 6.93263426,6.56875 L6.93263426,6.56875 C6.91306897,6.50625 6.66524197,5.73125 6.62611139,4.2125 C6.6065461,3.3875 6.92611249,2.6125 7.52611471,2.03125 C8.2174216,1.35625 9.22177313,1 10.4282993,1 C11.6674343,1 12.6456988,1.35625 13.3370057,2.03125 C13.9370079,2.6125 14.2565743,3.3875 14.237009,4.2125 C14.2044002,5.725 13.9565732,6.5 13.9304861,6.56875 L13.9304861,6.56875 C13.9304861,6.575 13.8913556,6.675 13.9043991,6.89375 C13.9174426,7.23125 14.347879,7.2375 14.1848349,7.94375 C14.0217908,8.65 13.963095,8.85625 13.9043991,9.08125 C13.8457032,9.30625 13.3500492,9.2875 13.2913534,9.58125 C13.2326575,9.875 13.2587445,9.8125 13.2587445,9.8125 C13.1674399,10.36875 12.9848305,11.275 12.8674387,11.56875 C12.7174382,11.93125 12.4370024,12.38125 12.3456977,12.525 L12.1956971,12.74375 L12.1826536,13.00625 C12.1826536,13.03125 12.1500448,13.6125 12.143523,14.2375 C12.1304795,15.4625 12.2152624,15.91875 12.5087418,16.25625 C13.0304828,16.85 14.1652696,17.11875 14.3870096,17.16875 C14.7000542,17.2375 15.0522294,17.2875 15.4239699,17.34375 C15.9913633,17.425 16.6370179,17.525 17.0804978,17.675 C17.7978917,17.91875 18.3978939,18.2125 18.8478956,18.53125 C19.0761573,18.6875 19.2522449,18.81875 19.3826802,19.00625 L10.4348211,19.00625 L10.4348211,19 Z" id="Shape"></path>
                </g>
            </g>
        </g>
    </g>
</svg>