<?xml version="1.0" encoding="UTF-8"?>
<svg width="22px" height="20px" viewBox="0 0 22 20" version="1.1" xmlns="http://www.w3.org/2000/svg" xmlns:xlink="http://www.w3.org/1999/xlink">
    <!-- Generator: Sketch 41.2 (35397) - http://www.bohemiancoding.com/sketch -->
    <title>Gear</title>
    <desc>Created with Sketch.</desc>
    <defs></defs>
    <g id="Page-1" stroke="none" stroke-width="1" fill="none" fill-rule="evenodd">
        <g id="Ricochet" transform="translate(-559.000000, -843.000000)" fill="#1285E3">
            <g id="List" transform="translate(380.000000, 418.000000)">
                <g id="Gear" transform="translate(179.478923, 425.000000)">
                    <path d="M10.4837343,4.98181818 C9.08693568,4.98181818 7.77714824,5.5012987 6.79350331,6.44155844 C5.80985838,7.38181818 5.26632377,8.63371429 5.26632377,9.96883117 C5.26632377,11.3038442 5.80980403,12.5505974 6.79350331,13.4961039 C7.77720259,14.4363636 9.09247918,14.9558442 10.4837343,14.9558442 C11.8804242,14.9558442 13.1902117,14.4363636 14.1739653,13.4961039 C15.1576646,12.5557403 15.7011448,11.3038442 15.7011448,9.96883117 C15.7011448,8.63371429 15.1576646,7.38696104 14.1739653,6.44155844 C13.1902117,5.5012987 11.8804786,4.98181818 10.4837343,4.98181818 Z M10.4837343,14.1246753 C8.07606239,14.1246753 6.13589219,12.2597403 6.13589219,9.96883117 C6.13589219,7.67787013 8.07606239,5.81298701 10.4837343,5.81298701 C12.8912975,5.81298701 14.8315764,7.67787013 14.8315764,9.96883117 C14.8315764,12.2597403 12.8912975,14.1246753 10.4837343,14.1246753 Z" id="Shape"></path>
                    <path d="M7.48845152,0.978077922 C7.73073503,1.32238961 8.0383992,1.62254545 8.40013967,1.86477922 C8.99862014,2.26555844 9.70215534,2.4774026 10.4348211,2.4774026 C11.1674868,2.4774026 11.8711307,2.26555844 12.4695568,1.86477922 C12.8311886,1.62254545 13.1389071,1.32238961 13.3811363,0.97812987 C13.942334,1.14581818 14.4862491,1.3614026 15.0076097,1.62285714 C14.9243485,2.03012987 14.919892,2.45038961 14.996577,2.86612987 C15.123371,3.55366234 15.4641875,4.17880519 15.9820698,4.67381818 C16.6524527,5.31464935 17.543869,5.66753247 18.4921334,5.66753247 C18.7226777,5.66753247 18.9499612,5.64680519 19.1725707,5.60545455 C19.44605,6.10415584 19.6715399,6.62431169 19.846758,7.16114286 C19.4868653,7.39283117 19.1730598,7.68690909 18.9199067,8.03262338 C18.5011552,8.60446753 18.27985,9.27657143 18.2799044,9.97641558 C18.2799044,10.676 18.5010465,11.3478961 18.9194719,11.9195844 C19.1723533,12.2650909 19.4858327,12.5591688 19.8453449,12.7908052 C19.6696921,13.3279481 19.443876,13.8481558 19.1699076,14.347013 C18.9481133,14.306026 18.7217538,14.2853506 18.4920791,14.2853506 C17.5438147,14.2853506 16.6523984,14.6383377 15.9821241,15.2791688 C15.4650027,15.7734026 15.1244579,16.3974545 14.9971749,17.0838442 C14.9202724,17.4988052 14.9241855,17.9183896 15.0067401,18.3251429 C14.4846186,18.586961 13.9400514,18.8026494 13.3780928,18.9703896 C13.1356463,18.627013 12.8280364,18.3275844 12.4666221,18.0861299 C11.8687938,17.6867013 11.1661825,17.4755325 10.4347667,17.4755325 C9.70340534,17.4755325 9.00079406,17.6866494 8.40296577,18.0861818 C8.04160574,18.3276364 7.73394156,18.6270649 7.49149501,18.9703896 C6.92959077,18.8027013 6.38502354,18.586961 5.86290205,18.3251948 C5.9454567,17.9184935 5.94936976,17.4989091 5.8724673,17.0838961 C5.74518423,16.3974545 5.40463949,15.7733506 4.88751802,15.2791688 C4.21713511,14.6383377 3.32571878,14.2854026 2.37745442,14.2854026 C2.14777966,14.2854026 1.92147448,14.305974 1.69968018,14.3470649 C1.42576613,13.8482597 1.19995008,13.3279481 1.02424291,12.7908052 C1.3837551,12.5591169 1.69723452,12.2651429 1.95011589,11.9195844 C2.36854134,11.3479481 2.58973781,10.676 2.58973781,9.97631169 C2.58973781,9.27651948 2.36843265,8.60436364 1.9496811,8.03251948 C1.69652799,7.68685714 1.38272249,7.39272727 1.02282986,7.16103896 C1.19810224,6.62425974 1.42348351,6.1041039 1.69701713,5.6054026 C1.91962664,5.64675325 2.14685574,5.66753247 2.37750877,5.66753247 C3.32566444,5.66753247 4.21713511,5.3145974 4.88757237,4.67376623 C5.40545471,4.1787013 5.74621684,3.55361039 5.87306513,2.86602597 C5.9497502,2.45028571 5.94534801,2.03002597 5.86203248,1.62280519 C6.38344745,1.3614026 6.9272538,1.14581818 7.48845152,0.978077922 L7.48845152,0.978077922 Z M12.9388521,0 C12.552818,0.962545455 11.577597,1.64623377 10.4348211,1.64623377 C9.29215383,1.64623377 8.31693284,0.962545455 7.93084446,0 C6.81855775,0.254285714 5.77366259,0.673922078 4.8260504,1.23054545 C5.26453028,2.17194805 5.08050786,3.31387013 4.2726788,4.08612987 C3.74925295,4.58644156 3.06343521,4.83641558 2.37756311,4.83641558 C2.00506174,4.83641558 1.63266906,4.7627013 1.2860917,4.61537662 C0.704241727,5.52124675 0.265598805,6.52036364 0,7.58358442 C1.00598197,7.95303896 1.72022373,8.88483117 1.72022373,9.97641558 C1.72022373,11.0677403 1.0064711,11.9990649 0.00114130856,12.3688312 C0.267337942,13.432 0.706415648,14.4307532 1.2888091,15.3365195 C1.63446255,15.189974 2.00604001,15.1166753 2.37745442,15.1166753 C3.06338086,15.1166753 3.74908991,15.3666494 4.27262445,15.866961 C5.07920351,16.6379221 5.26382376,17.7776623 4.82778954,18.7183377 C5.77551043,19.2747013 6.82040558,19.6940779 7.93274664,19.9481039 C8.32008502,18.9881558 9.29394731,18.3067532 10.4347667,18.3067532 C11.5756405,18.3067532 12.5494484,18.9880519 12.9367868,19.9481039 C14.0491822,19.6940779 15.094023,19.2746494 16.0417983,18.7182338 C15.6057641,17.7776623 15.7903843,16.6379221 16.5970177,15.866961 C17.1203349,15.3665974 17.8061526,15.1166234 18.4920247,15.1166234 C18.8635478,15.1166234 19.2349622,15.1899221 19.5807787,15.3365195 C20.1631722,14.4307532 20.6021955,13.432 20.8683922,12.3688312 C19.8630624,11.9990649 19.1493641,11.0676364 19.1493641,9.97641558 C19.1493097,8.88483117 19.8636602,7.95314286 20.8695335,7.58358442 C20.6039347,6.52041558 20.1653461,5.52124675 19.5834418,4.61532468 C19.2369731,4.76264935 18.8644174,4.83631169 18.4920247,4.83631169 C17.8060983,4.83631169 17.1203892,4.58638961 16.5968547,4.08607792 C15.78908,3.31397403 15.6051119,2.172 16.0435918,1.23049351 C15.0961426,0.673922078 14.0511388,0.254285714 12.9388521,0 L12.9388521,0 Z" id="Shape"></path>
                </g>
            </g>
        </g>
    </g>
</svg>